# xmcd
#
# Track frame offsets: 
#        150
#        19062
#        35747
#        53572
#        71662
#        86117
#        110025
#        122247
#        140015
#        157760
#        173262
#        186497
#        204680
#        228632
#        243657
#        256575
#        279672
#        298067
#        311770
#        337980
#
# Disc length: 4723 seconds
#
# Revision: 0
# Processed by: cddbd v1.5.2PL0 Copyright (c) Steve Scherf et al.
# Submitted via: ExactAudioCopy v0.95a5
#
DISCID=2d127114
DTITLE=Various Artist - Garage The Journey 94-98 Mixed By DJ Donna Dee CD01
DYEAR=2000
DGENRE=A Cappella
TTITLE0=Logic - Blues For You
TTITLE1=Cloud 9 - Do You Want Me
TTITLE2=24 Hour Experience - Together
TTITLE3=Tuff Jam Presents Q-Ruis - Spread Love
TTITLE4=RIP - Players
TTITLE5=Danny J Lewis - Spend The Night
TTITLE6=Baffled - Going On
TTITLE7=New Horizons - Find The Path
TTITLE8=RIP - Move To Jersey
TTITLE9=Hi Times - Journey Into Jazz
TTITLE10=The Anthill Mob - You Should Of Known
TTITLE11=Donna Dee and Krush Grooves - Haunted House
TTITLE12=Somore - I Refuse
TTITLE13=Nu-Birth - Anytime
TTITLE14=KMA Productions - Cape Fear
TTITLE15=Lady Penelope and Abstac - Love Devotion
TTITLE16=Sound Of One - As I Am
TTITLE17=Tina Moore - Never Gonna Let You Go
TTITLE18=Roy Davis Jr feat Preven Everett - Gabriel
TTITLE19=Dem 2 - Destiny
EXTD=
EXTT0=
EXTT1=
EXTT2=
EXTT3=
EXTT4=
EXTT5=
EXTT6=
EXTT7=
EXTT8=
EXTT9=
EXTT10=
EXTT11=
EXTT12=
EXTT13=
EXTT14=
EXTT15=
EXTT16=
EXTT17=
EXTT18=
EXTT19=
PLAYORDER=
